<?xml version="1.0" encoding="utf-8"?>
<!-- Generator: Adobe Illustrator 16.0.0, SVG Export Plug-In . SVG Version: 6.00 Build 0)  -->
<!DOCTYPE svg PUBLIC "-//W3C//DTD SVG 1.1//EN" "http://www.w3.org/Graphics/SVG/1.1/DTD/svg11.dtd">
<svg version="1.1" id="Layer_1" xmlns="http://www.w3.org/2000/svg" xmlns:xlink="http://www.w3.org/1999/xlink" x="0px" y="0px"
	 width="5827.634px" height="1796.995px" viewBox="0 0 5827.634 1796.995" enable-background="new 0 0 5827.634 1796.995"
	 xml:space="preserve">
<g>
	<rect x="1270.186" y="8393.607" fill="#BA2025" width="3647.749" height="37.978"/>
	<rect x="1270.186" y="7253.475" fill="#BA2025" width="3647.749" height="37.953"/>
	<path fill="#FFFFFF" d="M2026.482,8254.446H1880.44v-378.742h-466.577v378.742h-143.372l-1.455-825.056h144.827v325.912h466.577
		v-325.912h146.042V8254.446z"/>
	<path fill="#FFFFFF" d="M3338.311,7291.428l650.496,725.293v-587.33h144.665v964.217l-650.43-725.344v586.183h-144.731V7291.428z"
		/>
	<path fill="#FFFFFF" d="M4917.934,8254.446h-655.89l-1.386-825.056h657.275v120.326h-511.26v205.586h439.613v120.401h-439.613
		v258.433h511.26V8254.446z"/>
	<path fill="#FFFFFF" d="M2313.227,8254.446h-144.748l-1.361-825.056h146.109V8254.446z"/>
	<path fill="#FFFFFF" d="M2974.572,8254.446h-554.509l-1.368-825.056h144.745v704.746h411.132V8254.446z"/>
	<path fill="#FFFFFF" d="M3200.442,8254.446h-144.745l-1.343-825.056h146.088V8254.446z"/>
	<path fill="none" d="M4639.141,7412.244"/>
	<path fill="none" d="M3586.375,7197.498"/>
	<g>
		<g>
			<g>
				<path fill="#020000" d="M3419.08,5811.91h-579.915c-148.078,0-268.533,120.383-268.533,268.381v579.992
					c0,148.01,120.456,268.363,268.533,268.363h579.915c148.029,0,268.449-120.354,268.449-268.363v-579.992
					C3687.529,5932.293,3567.109,5811.91,3419.08,5811.91z"/>
				<path fill="#FFFFFF" d="M3419.08,5768.705h-579.915c-171.835,0-311.63,139.753-311.63,311.586v579.992
					c0,171.825,139.795,311.576,311.63,311.576h579.915c171.871,0,311.662-139.751,311.662-311.576v-579.992
					C3730.742,5908.458,3590.951,5768.705,3419.08,5768.705z M3687.529,6660.283c0,148.01-120.42,268.363-268.449,268.363h-579.915
					c-148.078,0-268.533-120.354-268.533-268.363v-579.992c0-147.998,120.456-268.381,268.533-268.381h579.915
					c148.029,0,268.449,120.383,268.449,268.381V6660.283z"/>
			</g>
			<g>
				<path fill="#FFFFFF" d="M3213.914,6285.561h-313.865v-317.176c-59.101,7.867-110.074,41.385-141.397,89.059l0.983,627.279
					c31.479,46.826,81.946,79.693,140.414,87.465v-368.774h313.865V6285.561z"/>
			</g>
		</g>
		<g>
			<path fill="#BA2025" d="M3499.73,6142.479v-84.817c-31.54-48.116-83.07-81.859-142.875-89.507v174.324H3499.73z"/>
			<path fill="#BA2025" d="M3356.855,6260.205v25.355v117.853v368.995c59.805-7.65,111.335-41.301,142.875-89.434v-422.77H3356.855z
				"/>
		</g>
	</g>
	<g>
		<path fill="#FFFFFF" d="M1386.537,8546.373l24.075,88.836l21.075-88.836h39.112l-38.103,138.15h-38.134l-24.079-85.825
			l-24.065,85.825h-38.107l-38.126-138.15h39.116l21.068,88.836l24.072-88.836H1386.537z"/>
		<path fill="#FFFFFF" d="M1592.827,8546.373h84.259c14.058,0,24.244,3.146,30.598,9.408c6.348,6.239,9.539,16.271,9.539,30.09
			v17.763c0,10.909-1.856,19.397-5.517,25.435c-3.674,6.068-9.532,10.062-17.554,12.07l25.078,43.385h-39.136l-23.066-41.427
			h-28.088v41.427h-36.112V8546.373z M1681.106,8585.871c0-7.893-4.02-11.875-12.042-11.875h-40.126v41.481h40.126
			c8.021,0,12.042-3.97,12.042-11.844V8585.871z"/>
		<path fill="#FFFFFF" d="M1877.39,8684.523h-39.132l53.172-138.15h40.125l53.172,138.15h-39.116l-9.034-24.646h-50.153
			L1877.39,8684.523z M1895.44,8634.193h32.112l-16.049-46.364L1895.44,8634.193z"/>
		<path fill="#FFFFFF" d="M2106.645,8546.373h84.266c14.034,0,24.225,3.146,30.586,9.408c6.352,6.239,9.538,16.271,9.538,30.09
			v19.751c0,13.766-3.187,23.813-9.538,30.087c-6.362,6.219-16.552,9.372-30.586,9.372h-48.162v39.442h-36.104V8546.373z
			 M2194.917,8585.871c0-7.893-4.006-11.875-12.036-11.875h-40.132v43.449h40.132c8.03,0,12.036-3.923,12.036-11.823V8585.871z"/>
		<path fill="#FFFFFF" d="M2657.543,8667.282l-16.636,20.943c-8.164-3.943-16.019-9.291-23.519-16.214
			c-5.804,5.14-11.971,8.958-18.497,11.38c-6.558,2.446-14.338,3.644-23.322,3.644c-17.879,0-31.367-4.952-40.359-14.839
			c-6.998-7.657-10.494-16.417-10.494-26.376c0-9.089,2.768-17.183,8.221-24.433c5.503-7.27,13.703-13.522,24.607-18.844
			c-4.885-5.758-8.573-11.189-11.063-16.357c-2.484-5.142-3.731-10.064-3.731-14.708c0-8.488,3.467-15.738,10.396-21.713
			c6.99-5.96,16.911-8.896,29.775-8.896c12.398,0,22.097,3.075,29.091,9.349c6.983,6.203,10.47,13.79,10.47,22.863
			c0,5.663-1.722,11.083-5.207,16.228c-3.435,5.175-10.42,10.984-20.942,17.455l19.983,25.95c2.333-4.097,4.38-9.462,6.062-16.119
			l24.89,5.602c-2.498,8.697-4.647,15.023-6.458,19.054c-1.835,4.006-3.785,7.369-5.904,10.067
			c3.103,2.797,7.081,5.883,11.927,9.287C2651.686,8663.985,2655.285,8666.231,2657.543,8667.282z M2571.839,8619.885
			c-6.323,3.146-11.072,6.936-14.187,11.382c-3.15,4.432-4.715,8.945-4.715,13.588c0,5.854,1.941,10.627,5.824,14.288
			c3.899,3.72,9.103,5.53,15.613,5.53c4.332,0,8.504-0.798,12.462-2.505c3.97-1.636,8.318-4.41,13.017-8.257L2571.839,8619.885z
			 M2582.625,8590.505l7.436-5.596c5.492-4.166,8.221-8.349,8.221-12.429c0-3.509-1.308-6.437-3.95-8.895
			c-2.635-2.438-6.226-3.658-10.731-3.658c-4.379,0-7.822,1.095-10.316,3.268c-2.461,2.124-3.691,4.615-3.691,7.456
			c0,3.301,2.104,7.388,6.251,12.127L2582.625,8590.505z"/>
		<path fill="#FFFFFF" d="M3029.923,8546.373c15.129,0,26.615,3.883,34.45,11.577c7.789,7.688,11.691,18.977,11.691,33.799v47.381
			c0,14.897-3.903,26.172-11.691,33.888c-7.835,7.691-19.321,11.506-34.45,11.506h-78.25v-138.15H3029.923z M3039.959,8591.749
			c0-11.809-6.006-17.753-18.061-17.753h-34.086v82.908h34.086c12.055,0,18.061-5.872,18.061-17.774V8591.749z"/>
		<path fill="#FFFFFF" d="M3325.326,8684.523h-111.3v-138.15h111.3v27.623h-75.224v26.707h59.229v27.61h-59.229v28.591h75.224
			V8684.523z"/>
		<path fill="#FFFFFF" d="M3523.505,8684.523h-36.098v-110.527h-42.104v-27.623h120.378v27.623h-42.177V8684.523z"/>
		<path fill="#FFFFFF" d="M3712.131,8684.523h-39.109l53.15-138.15h40.11l53.231,138.15h-39.203l-9.006-24.646h-50.146
			L3712.131,8684.523z M3730.162,8634.193h32.143l-16.063-46.364L3730.162,8634.193z"/>
		<path fill="#FFFFFF" d="M4172.749,8656.904h73.239v27.619h-109.318v-138.15h36.079V8656.904z"/>
		<path fill="#FFFFFF" d="M4665.412,8684.523h-38.127l-48.137-82.895v82.895h-36.13v-138.15h38.121l48.165,82.902v-82.902h36.107
			V8684.523z"/>
		<path fill="#FFFFFF" d="M4917.126,8681.607c-31.293,3.255-60.064,4.932-86.271,4.932c-13.105,0-22.734-3.018-28.903-9.083
			c-6.159-6.034-9.216-15.56-9.216-28.426v-63.159c0-13.819,3.15-23.851,9.524-30.09c6.351-6.263,16.542-9.408,30.606-9.408h72.214
			v27.623h-64.204c-8.01,0-12.033,3.982-12.033,11.875v63.159c0,3.006,0.893,5.39,2.716,7.207c1.788,1.77,4.241,2.675,7.322,2.675
			c15.386,0,29.417-0.324,42.134-1.009v-28.628h-26.092v-23.653h62.203V8681.607z"/>
		<polygon fill="#FFFFFF" points="3992.569,8656.904 3992.569,8573.996 3992.569,8546.373 3956.467,8546.373 3956.467,8573.996 
			3956.467,8656.904 3956.467,8684.523 3992.569,8684.523 		"/>
		<polygon fill="#FFFFFF" points="4410.021,8656.904 4410.021,8573.996 4410.021,8546.373 4373.911,8546.373 4373.911,8573.996 
			4373.911,8656.904 4373.911,8684.523 4410.021,8684.523 		"/>
	</g>
</g>
<g>
	<g>
		<g>
			<path fill="#030202" d="M1268.217,218.155H575.14c-176.96,0-320.939,143.867-320.939,320.745v693.162
				c0,176.886,143.979,320.721,320.939,320.721h693.077c176.917,0,320.829-143.834,320.829-320.721V538.9
				C1589.046,362.022,1445.135,218.155,1268.217,218.155z"/>
			<path fill="#FFFFFF" d="M1268.217,166.516H575.14c-205.357,0-372.429,167.021-372.429,372.383v693.162
				c0,205.356,167.072,372.371,372.429,372.371h693.077c205.405,0,372.469-167.015,372.469-372.371V538.9
				C1640.686,333.538,1473.623,166.516,1268.217,166.516z M1589.046,1232.062c0,176.886-143.911,320.721-320.829,320.721H575.14
				c-176.96,0-320.939-143.834-320.939-320.721V538.9c0-176.878,143.979-320.745,320.939-320.745h693.077
				c176.917,0,320.829,143.867,320.829,320.745V1232.062z"/>
		</g>
		<g>
			<path fill="#FFFFFF" d="M1023.016,784.22H647.909V405.156c-70.634,9.397-131.555,49.465-168.984,106.437l1.179,749.676
				c37.614,55.956,97.928,95.244,167.805,104.532V925.068h375.107V784.22z"/>
		</g>
	</g>
	<g>
		<path fill="#B92226" d="M1364.599,613.225V511.851c-37.692-57.499-99.277-97.829-170.746-106.961v208.335H1364.599z"/>
		<path fill="#B92226" d="M1193.853,753.919v30.301v140.848v440.994c71.469-9.143,133.054-49.355,170.746-106.892V753.919H1193.853z
			"/>
	</g>
</g>
<g>
	<rect x="2002.888" y="1333.054" fill="#B92226" width="3622.036" height="37.706"/>
	<rect x="2002.888" y="200.951" fill="#B92226" width="3622.036" height="37.686"/>
	<path fill="#FFFFFF" d="M2753.855,1194.865h-145.014V818.787h-463.289v376.078h-142.364l-1.441-819.235h143.805v323.611h463.289
		V375.63h145.014V1194.865z"/>
	<path fill="#FFFFFF" d="M4056.427,238.637l645.916,720.174V375.63h143.645v957.424L4200.144,612.82v582.045h-143.717V238.637z"/>
	<path fill="#FFFFFF" d="M5624.924,1194.865h-651.278l-1.382-819.235h652.66v119.473h-507.677v204.138h436.514v119.546h-436.514
		v256.612h507.677V1194.865z"/>
	<path fill="#FFFFFF" d="M3038.577,1194.865H2894.84l-1.348-819.235h145.084V1194.865z"/>
	<path fill="#FFFFFF" d="M3695.258,1194.865h-550.611l-1.34-819.235h143.718v699.769h408.233V1194.865z"/>
	<path fill="#FFFFFF" d="M3919.531,1194.865h-143.731l-1.324-819.235h145.056V1194.865z"/>
	<path fill="none" d="M5348.094,358.597"/>
	<path fill="none" d="M4302.75,145.367"/>
	<g>
		<path fill="#FFFFFF" d="M2118.417,1484.725l23.904,88.214l20.929-88.214h38.837l-37.833,137.183h-37.862l-23.918-85.219
			l-23.889,85.219h-37.837l-37.861-137.183h38.841l20.916,88.214l23.908-88.214H2118.417z"/>
		<path fill="#FFFFFF" d="M2323.25,1484.725h83.669c13.959,0,24.069,3.126,30.386,9.347c6.302,6.192,9.471,16.165,9.471,29.875
			v17.646c0,10.823-1.844,19.253-5.482,25.263c-3.644,6.009-9.46,9.973-17.427,11.977l24.898,43.074h-38.862l-22.898-41.137h-27.896
			v41.137h-35.858V1484.725z M2410.913,1523.948c0-7.83-3.993-11.787-11.958-11.787h-39.846v41.189h39.846
			c7.965,0,11.958-3.941,11.958-11.757V1523.948z"/>
		<path fill="#FFFFFF" d="M2605.814,1621.908h-38.86l52.794-137.183h39.841l52.795,137.183h-38.828l-8.976-24.469h-49.8
			L2605.814,1621.908z M2623.731,1571.927h31.885l-15.928-46.034L2623.731,1571.927z"/>
		<path fill="#FFFFFF" d="M2833.45,1484.725h83.664c13.939,0,24.065,3.126,30.372,9.347c6.312,6.192,9.469,16.165,9.469,29.875
			v19.611c0,13.666-3.158,23.655-9.469,29.882c-6.307,6.164-16.432,9.303-30.372,9.303h-47.811v39.164h-35.853V1484.725z
			 M2921.102,1523.948c0-7.83-3.988-11.787-11.954-11.787h-39.846v43.141h39.846c7.965,0,11.954-3.904,11.954-11.743V1523.948z"/>
		<path fill="#FFFFFF" d="M3380.476,1604.797l-16.524,20.784c-8.118-3.92-15.909-9.223-23.356-16.093
			c-5.769,5.099-11.885,8.888-18.373,11.292c-6.51,2.433-14.219,3.619-23.151,3.619c-17.747,0-31.15-4.917-40.083-14.744
			c-6.946-7.598-10.416-16.282-10.416-26.182c0-9.019,2.756-17.063,8.16-24.245c5.478-7.227,13.608-13.44,24.434-18.723
			c-4.854-5.717-8.51-11.11-10.985-16.245c-2.465-5.106-3.688-9.987-3.688-14.605c0-8.43,3.426-15.627,10.314-21.557
			c6.938-5.915,16.786-8.835,29.566-8.835c12.308,0,21.924,3.052,28.891,9.288c6.917,6.163,10.388,13.689,10.388,22.699
			c0,5.624-1.703,11.007-5.157,16.114c-3.426,5.129-10.358,10.905-20.805,17.331l19.829,25.781c2.328-4.08,4.356-9.412,6.031-16.027
			l24.709,5.566c-2.476,8.632-4.62,14.92-6.396,18.927c-1.833,3.977-3.773,7.313-5.869,9.994c3.07,2.775,7.035,5.843,11.827,9.223
			C3374.644,1601.511,3378.214,1603.748,3380.476,1604.797z M3295.355,1557.721c-6.264,3.125-10.983,6.892-14.088,11.307
			c-3.115,4.399-4.663,8.887-4.663,13.483c0,5.814,1.926,10.564,5.772,14.192c3.873,3.693,9.044,5.485,15.502,5.485
			c4.297,0,8.451-0.787,12.371-2.484c3.943-1.618,8.271-4.371,12.934-8.196L3295.355,1557.721z M3306.082,1528.552l7.384-5.559
			c5.449-4.13,8.161-8.283,8.161-12.341c0-3.481-1.311-6.396-3.921-8.828c-2.619-2.418-6.189-3.635-10.663-3.635
			c-4.342,0-7.768,1.085-10.241,3.248c-2.45,2.113-3.658,4.583-3.658,7.402c0,3.278,2.081,7.33,6.19,12.042L3306.082,1528.552z"/>
		<path fill="#FFFFFF" d="M3750.212,1484.725c15.025,0,26.431,3.855,34.212,11.496c7.734,7.641,11.61,18.846,11.61,33.562v47.046
			c0,14.795-3.876,25.985-11.61,33.648c-7.781,7.635-19.187,11.43-34.212,11.43h-77.683v-137.183H3750.212z M3760.182,1529.783
			c0-11.721-5.963-17.622-17.922-17.622h-33.85v82.327h33.85c11.959,0,17.922-5.842,17.922-17.658V1529.783z"/>
		<path fill="#FFFFFF" d="M4043.537,1621.908h-110.514v-137.183h110.514v27.436h-74.685v26.516h58.802v27.414h-58.802v28.397h74.685
			V1621.908z"/>
		<path fill="#FFFFFF" d="M4240.315,1621.908h-35.843v-109.747h-41.815v-27.436h119.532v27.436h-41.874V1621.908z"/>
		<path fill="#FFFFFF" d="M4427.61,1621.908h-38.827l52.771-137.183h39.836l52.857,137.183h-38.93l-8.945-24.469h-49.787
			L4427.61,1621.908z M4445.517,1571.927h31.909l-15.938-46.034L4445.517,1571.927z"/>
		<path fill="#FFFFFF" d="M4884.99,1594.488h72.72v27.42h-108.548v-137.183h35.828V1594.488z"/>
		<path fill="#FFFFFF" d="M5374.161,1621.908h-37.855l-47.789-82.304v82.304h-35.871v-137.183h37.852l47.821,82.32v-82.32h35.843
			V1621.908z"/>
		<path fill="#FFFFFF" d="M5624.104,1619.01c-31.074,3.235-59.631,4.895-85.654,4.895c-13.012,0-22.584-3.001-28.702-9.012
			c-6.122-5.994-9.149-15.451-9.149-28.229v-62.716c0-13.71,3.129-23.683,9.456-29.875c6.307-6.221,16.431-9.347,30.39-9.347h71.7
			v27.436H5548.4c-7.956,0-11.949,3.957-11.949,11.787v62.716c0,2.993,0.878,5.346,2.697,7.153c1.776,1.764,4.212,2.659,7.272,2.659
			c15.282,0,29.211-0.32,41.846-0.997v-28.434h-25.922v-23.487h61.76V1619.01z"/>
		<polygon fill="#FFFFFF" points="4706.07,1594.488 4706.07,1512.161 4706.07,1484.725 4670.23,1484.725 4670.23,1512.161 
			4670.23,1594.488 4670.23,1621.908 4706.07,1621.908 		"/>
		<polygon fill="#FFFFFF" points="5120.586,1594.488 5120.586,1512.161 5120.586,1484.725 5084.727,1484.725 5084.727,1512.161 
			5084.727,1594.488 5084.727,1621.908 5120.586,1621.908 		"/>
	</g>
</g>
</svg>
