<?xml version="1.0" encoding="utf-8"?>
<!-- Generator: Adobe Illustrator 16.0.0, SVG Export Plug-In . SVG Version: 6.00 Build 0)  -->
<!DOCTYPE svg PUBLIC "-//W3C//DTD SVG 1.1//EN" "http://www.w3.org/Graphics/SVG/1.1/DTD/svg11.dtd">
<svg version="1.1" id="Layer_1" xmlns="http://www.w3.org/2000/svg" xmlns:xlink="http://www.w3.org/1999/xlink" x="0px" y="0px"
	 width="2267.716px" height="2267.719px" viewBox="0 0 2267.716 2267.719" enable-background="new 0 0 2267.716 2267.719"
	 xml:space="preserve">
<g>
	<g>
		<g>
			<path d="M2126.774,1630.354c0,274.111-222.376,496.591-496.489,496.591h-993.02c-274.264,0-496.49-222.479-496.49-496.591
				V637.416c0-274.331,222.226-496.489,496.49-496.489h993.02c274.113,0,496.489,222.158,496.489,496.489V1630.354z"/>
			<path fill="#FFFFFF" d="M1630.285,2163.806h-993.02c-294.026,0-533.351-239.344-533.351-533.452V637.416
				c0-294.176,239.325-533.502,533.351-533.502h993.02c294.178,0,533.519,239.326,533.519,533.502v992.938
				C2163.803,1924.462,1924.462,2163.806,1630.285,2163.806z M1630.285,2089.916c253.439,0,459.46-206.124,459.46-459.562V637.416
				c0-253.371-206.021-459.553-459.46-459.553h-993.02c-253.304,0-459.479,206.182-459.479,459.553v992.938
				c0,253.438,206.174,459.562,459.479,459.562"/>
		</g>
		<g>
			<path fill="#FFFFFF" d="M1278.878,988.841H741.776V445.802c-101.241,13.533-188.485,70.839-242.31,152.375l1.788,1074.095
				c53.825,80.13,140.327,136.313,240.522,149.77v-631.487h537.103V988.841z"/>
		</g>
	</g>
	<g>
		<path fill="#BC2025" d="M1768.522,743.859v-145.31c-54.094-82.279-142.553-140.101-244.84-153.033v298.343H1768.522z"/>
		<path fill="#BC2025" d="M1523.682,945.361v43.48v201.713v631.792c102.287-13.085,190.746-70.821,244.84-153.178V945.361H1523.682z
			"/>
	</g>
</g>
</svg>
